<?xml version="1.0" standalone="no"?>
<!DOCTYPE svg PUBLIC "-//W3C//DTD SVG 20010904//EN"
 "http://www.w3.org/TR/2001/REC-SVG-20010904/DTD/svg10.dtd">
<svg version="1.0" xmlns="http://www.w3.org/2000/svg"
 width="3000.000000pt" height="3000.000000pt" viewBox="0 0 3000.000000 3000.000000"
 preserveAspectRatio="xMidYMid meet">
<metadata>
Created by potrace 1.11, written by Peter Selinger 2001-2013
</metadata>
<g transform="translate(0.000000,3000.000000) scale(0.100000,-0.100000)"
fill="#000000" stroke="none">
<path d="M6685 18431 c-72 -18 -121 -55 -171 -131 l-29 -45 0 -3200 0 -3200
31 -55 c34 -59 100 -112 162 -130 25 -7 2537 -10 7797 -10 l7760 0 53 25 c59
27 111 77 139 133 17 36 18 148 20 3217 2 2504 0 3187 -10 3215 -27 78 -66
122 -147 166 -34 19 -185 19 -7805 20 -4274 1 -7783 -1 -7800 -5z m15090 -660
c7 -1 10 -866 10 -2723 l0 -2723 -7310 -1 c-4020 0 -7315 1 -7320 3 -7 2 -10
917 -9 2726 1 1497 2 2722 3 2722 9 1 14619 -3 14626 -4z"/>
<path d="M17939 15998 c-1 -2 -2 -76 -3 -165 l-2 -163 181 0 181 0 -1 163 0
162 -178 3 c-97 1 -178 1 -178 0z"/>
<path d="M9152 15060 l0 -930 194 0 194 0 0 313 0 312 90 90 c86 85 90 88 104
70 9 -11 61 -85 118 -165 56 -80 107 -150 113 -157 5 -6 82 -113 169 -237
l159 -226 249 0 c136 0 248 2 248 6 0 3 -145 203 -322 445 -178 242 -356 486
-397 541 l-73 101 155 156 c359 360 597 602 597 606 0 3 -112 5 -249 5 l-248
0 -130 -137 c-72 -76 -145 -154 -163 -173 -51 -56 -268 -286 -347 -369 l-72
-76 -1 378 0 377 -194 0 -193 0 -1 -930z"/>
<path d="M11585 15543 c-241 -34 -391 -166 -434 -381 -20 -100 -35 -92 164
-92 149 0 175 2 175 15 0 8 -1 16 -1 18 -3 4 39 80 54 99 30 38 102 58 201 54
80 -2 100 -7 139 -30 38 -22 48 -34 58 -69 14 -50 -4 -113 -36 -131 -11 -6
-22 -14 -25 -17 -10 -12 -126 -35 -225 -44 -33 -3 -67 -8 -75 -10 -8 -2 -31
-7 -50 -10 -19 -3 -48 -8 -65 -12 -16 -4 -32 -7 -35 -8 -13 -1 -80 -29 -128
-53 -157 -77 -234 -264 -198 -481 31 -183 197 -307 416 -308 155 -2 274 46
397 160 l42 38 6 -38 c3 -21 10 -55 16 -75 l10 -38 199 0 199 0 -3 25 c-2 14
-13 33 -25 42 -48 33 -50 51 -51 514 0 239 -3 452 -6 474 -23 188 -114 277
-349 341 -58 16 -300 27 -370 17z m361 -855 c-5 -117 -11 -151 -41 -207 -66
-129 -308 -185 -400 -93 -36 35 -46 65 -46 130 0 60 24 116 62 144 30 23 120
54 179 63 25 4 50 8 55 9 64 14 86 20 125 33 25 9 49 20 55 25 5 4 10 8 12 8
2 0 1 -51 -1 -112z"/>
<path d="M15100 15535 c-30 -7 -77 -26 -103 -40 -42 -24 -67 -48 -147 -145
l-21 -25 2 30 c1 17 1 58 0 93 l-1 62 -174 0 -175 0 1 -690 0 -690 182 0 183
0 1 458 c0 475 4 529 43 584 47 65 184 97 272 63 56 -21 81 -47 103 -105 15
-40 17 -102 19 -520 l1 -475 182 -3 182 -2 0 443 c0 487 4 529 59 597 43 54
83 72 163 76 79 3 130 -15 166 -61 45 -57 46 -75 47 -577 l0 -478 186 0 186 0
-2 538 c-2 571 -1 567 -51 663 -94 185 -328 266 -551 191 -92 -31 -156 -77
-204 -144 -19 -26 -37 -47 -41 -48 -3 0 -18 19 -31 43 -35 57 -64 89 -112 120
-79 52 -245 71 -365 42z"/>
<path d="M19205 15535 c-248 -54 -409 -245 -399 -471 10 -213 154 -315 558
-399 49 -11 203 -58 225 -70 96 -49 86 -162 -17 -202 -56 -22 -232 -24 -300
-4 -59 17 -119 73 -129 119 -4 21 -8 40 -9 45 -1 4 -2 12 -3 17 -1 6 -70 10
-186 10 l-185 0 6 -44 c15 -135 52 -215 139 -300 48 -48 155 -110 207 -120 12
-2 30 -7 38 -10 66 -23 334 -30 445 -10 178 31 297 105 369 229 39 66 55 137
53 233 -2 76 -6 96 -35 154 -70 143 -184 205 -522 282 -246 56 -293 80 -293
150 0 75 60 115 183 123 141 10 237 -38 262 -131 l12 -46 179 0 180 0 -7 48
c-9 73 -46 166 -85 219 -62 83 -186 150 -326 178 -73 15 -291 14 -360 0z"/>
<path d="M12705 15488 c4 -13 22 -66 40 -118 18 -52 68 -194 110 -315 42 -121
81 -229 85 -240 14 -33 62 -169 67 -190 2 -11 9 -29 14 -40 24 -54 170 -484
174 -515 4 -26 -3 -52 -28 -100 -42 -86 -78 -105 -193 -103 l-81 1 0 -143 1
-143 25 -5 c53 -11 242 -5 301 9 187 43 207 82 520 989 27 77 69 199 95 270
25 72 48 137 50 145 4 18 73 217 85 245 15 36 90 257 90 266 0 5 -85 9 -189 9
l-189 0 -72 -257 c-39 -142 -76 -271 -80 -288 -11 -37 -29 -101 -75 -270 -20
-71 -41 -146 -47 -165 l-11 -34 -14 44 c-7 25 -15 52 -16 60 -2 8 -15 53 -29
100 -30 98 -199 667 -223 753 l-16 57 -200 0 -200 0 6 -22z"/>
<path d="M17939 15500 c-1 -3 -2 -356 -3 -785 -2 -596 -5 -785 -14 -802 -18
-33 -60 -50 -114 -46 l-46 3 0 -144 0 -145 55 -7 c104 -13 257 7 326 43 64 33
118 116 139 216 14 70 18 1656 3 1665 -12 7 -344 9 -346 2z"/>
<path d="M16981 14320 l0 -190 192 0 193 0 -1 190 0 190 -192 0 -192 0 0 -190z"/>
</g>
</svg>
